<?xml version="1.0" encoding="UTF-8"?>
<svg width="48px" height="48px" viewBox="0 0 48 48" version="1.1" xmlns="http://www.w3.org/2000/svg" xmlns:xlink="http://www.w3.org/1999/xlink">
    <!-- Generator: Sketch 63 (92445) - https://sketch.com -->
    <title>Icon</title>
    <desc>Created with Sketch.</desc>
    <defs>
        <filter x="-30.0%" y="-30.0%" width="160.0%" height="160.0%" filterUnits="objectBoundingBox" id="filter-1">
            <feOffset dx="0" dy="2" in="SourceAlpha" result="shadowOffsetOuter1"></feOffset>
            <feGaussianBlur stdDeviation="2" in="shadowOffsetOuter1" result="shadowBlurOuter1"></feGaussianBlur>
            <feColorMatrix values="0 0 0 0 0   0 0 0 0 0   0 0 0 0 0  0 0 0 0.16 0" type="matrix" in="shadowBlurOuter1" result="shadowMatrixOuter1"></feColorMatrix>
            <feMerge>
                <feMergeNode in="shadowMatrixOuter1"></feMergeNode>
                <feMergeNode in="SourceGraphic"></feMergeNode>
            </feMerge>
        </filter>
        <path d="M11.4173013,-4.61272637e-16 L28.5826987,4.61272637e-16 C32.5527431,-2.68012686e-16 33.9923771,0.41336405 35.443766,1.18957532 C36.8951549,1.96578659 38.0342134,3.10484509 38.8104247,4.55623398 C39.586636,6.00762287 40,7.44725689 40,11.4173013 L40,28.5826987 C40,32.5527431 39.586636,33.9923771 38.8104247,35.443766 C38.0342134,36.8951549 36.8951549,38.0342134 35.443766,38.8104247 C33.9923771,39.586636 32.5527431,40 28.5826987,40 L11.4173013,40 C7.44725689,40 6.00762287,39.586636 4.55623398,38.8104247 C3.10484509,38.0342134 1.96578659,36.8951549 1.18957532,35.443766 C0.41336405,33.9923771 1.78675124e-16,32.5527431 -3.07515091e-16,28.5826987 L3.07515091e-16,11.4173013 C-1.78675124e-16,7.44725689 0.41336405,6.00762287 1.18957532,4.55623398 C1.96578659,3.10484509 3.10484509,1.96578659 4.55623398,1.18957532 C6.00762287,0.41336405 7.44725689,2.68012686e-16 11.4173013,-4.61272637e-16 Z" id="path-2"></path>
        <linearGradient x1="81.0791016%" y1="21.925354%" x2="44.152832%" y2="70.3781128%" id="linearGradient-4">
            <stop stop-color="#2E313E" offset="0%"></stop>
            <stop stop-color="#15192A" offset="100%"></stop>
        </linearGradient>
    </defs>
    <g id="页面-1" stroke="none" stroke-width="1" fill="none" fill-rule="evenodd">
        <g id="1920已登录" transform="translate(-707.000000, -1063.000000)">
            <g id="app引导下载" transform="translate(103.000000, 715.000000)">
                <g id="iphone">
                    <g id="Icon" filter="url(#filter-1)" transform="translate(608.000000, 350.000000)">
                        <g id="Background">
                            <mask id="mask-3" fill="white">
                                <use xlink:href="#path-2"></use>
                            </mask>
                            <use id="蒙版" fill="#8F8F8F" xlink:href="#path-2"></use>
                            <rect fill="url(#linearGradient-4)" mask="url(#mask-3)" x="0" y="0" width="40" height="40"></rect>
                        </g>
                        <g id="bybit" transform="translate(4.375000, 12.968750)" fill="#FFB11A">
                            <polygon id="Fill-1" points="24.765625 10.625 26.484375 10.625 26.484375 3.59375 24.765625 3.59375"></polygon>
                            <path d="M25.625,2.65625 C26.0996426,2.65625 26.484375,2.27151764 26.484375,1.796875 C26.484375,1.32223236 26.0996426,0.9375 25.625,0.9375 C25.1503574,0.9375 24.765625,1.32223236 24.765625,1.796875 C24.765625,2.27151764 25.1503574,2.65625 25.625,2.65625" id="Fill-2"></path>
                            <path d="M3.515625,8.85411984 C2.54479073,8.85411984 1.75785899,8.06135897 1.75785899,7.08333333 C1.75785899,6.1053077 2.54479073,5.31245317 3.515625,5.31245317 C4.4863663,5.31245317 5.27339101,6.1053077 5.27339101,7.08333333 C5.27339101,8.06135897 4.4863663,8.85411984 3.515625,8.85411984 M3.515625,3.54166667 C2.8750343,3.54166667 2.27507322,3.71512994 1.75785899,4.01663008 L1.75785899,0 L0,0 L0,7.08333333 C0,9.0393846 1.57404943,10.625 3.515625,10.625 C5.45720057,10.625 7.03125,9.0393846 7.03125,7.08333333 C7.03125,5.12728206 5.45720057,3.54166667 3.515625,3.54166667" id="Fill-4"></path>
                            <path d="M20.15625,8.85411984 C19.1855087,8.85411984 18.398484,8.06135897 18.398484,7.08333333 C18.398484,6.1053077 19.1855087,5.31245317 20.15625,5.31245317 C21.1270843,5.31245317 21.914016,6.1053077 21.914016,7.08333333 C21.914016,8.06135897 21.1270843,8.85411984 20.15625,8.85411984 M20.15625,3.54166667 C19.5157523,3.54166667 18.9156982,3.71512994 18.398484,4.01663008 L18.398484,0 L16.640625,0 L16.640625,7.08333333 C16.640625,9.0393846 18.2146744,10.625 20.15625,10.625 C22.0978256,10.625 23.671875,9.0393846 23.671875,7.08333333 C23.671875,5.12728206 22.0978256,3.54166667 20.15625,3.54166667" id="Fill-6"></path>
                            <path d="M15.312407,3.4375 L13.5552454,3.4375 L13.5552454,6.97916667 L13.5546875,6.97916667 L13.5546875,6.98993844 C13.548923,7.96389444 12.763644,8.75070251 11.796782,8.75070251 C11.6457883,8.75070251 11.4983277,8.73121964 11.3581192,8.69468927 L11.3570035,8.69468927 C11.0487866,8.61432244 10.7732044,8.45246478 10.5544309,8.23206485 C10.2366374,7.91181523 10.0396204,7.46867369 10.0396204,6.97926033 L10.0396204,3.4375 L8.28125,3.4375 L8.28125,6.97926033 C8.28125,7.6026184 8.44079756,8.18701072 8.72112152,8.69468927 C9.0293384,9.25716337 9.48613163,9.72475217 10.0384117,10.0461258 C10.5556396,10.3493279 11.1563603,10.5210207 11.796782,10.5210207 C12.4371107,10.5210207 13.0373666,10.3478292 13.5546875,10.0463131 L13.5546875,10.520646 L13.5546875,10.520646 C13.5546875,11.4987234 12.767642,12.2915262 11.796782,12.2915262 L11.796782,14.0625 C13.7384089,14.0625 15.312314,12.4768944 15.3125,10.5210207 L15.3125,10.520646 L15.3125,10.520646 L15.3125,6.97916667 L15.312407,6.97916667 L15.312407,3.4375 Z" id="Fill-8"></path>
                            <polygon id="Fill-10" points="28.5546875 0 28.5546875 3.54169789 27.65625 3.54169789 27.65625 5.3125 28.5546875 5.3125 28.5546875 10.625 30.3515625 10.625 30.3515625 5.3125 31.25 5.3125 31.25 3.54169789 30.3515625 3.54169789 30.3515625 0"></polygon>
                        </g>
                    </g>
                </g>
            </g>
        </g>
    </g>
</svg>