<?xml version="1.0" encoding="UTF-8"?>
<svg width="18px" height="18px" viewBox="0 0 18 18" version="1.1" xmlns="http://www.w3.org/2000/svg" xmlns:xlink="http://www.w3.org/1999/xlink">
    <!-- Generator: Sketch 59.1 (86144) - https://sketch.com -->
    <title>Shape</title>
    <desc>Created with Sketch.</desc>
    <g id="页面-1" stroke="none" stroke-width="1" fill="none" fill-rule="evenodd" fill-opacity="0.802911932">
        <g id="4点击展开样式ru" transform="translate(-1418.000000, -1017.000000)" fill="#FFFFFF">
            <g id="右边" transform="translate(1412.000000, 1010.000000)">
                <g id="关闭">
                    <path d="M23.7704422,24.7728344 L23.7704422,24.7728344 C23.4675954,25.0757219 22.9757723,25.0757219 22.6729255,24.7728344 L15,17.098876 L7.32465173,24.7728344 C7.02180497,25.0757219 6.52998183,25.0757219 6.22713507,24.7728344 L6.22713507,24.7728344 C5.92428831,24.4699468 5.92428831,23.9780575 6.22713507,23.67517 L13.9024833,16.0012116 L6.22955784,8.32483005 C5.92671108,8.02194252 5.92671108,7.53005317 6.22955784,7.22716565 L6.22955784,7.22716565 C6.5324046,6.92427812 7.02422774,6.92427812 7.3270745,7.22716565 L15,14.9035471 L22.6753483,7.22958875 C22.978195,6.92670122 23.4700182,6.92670122 23.7728649,7.22958875 L23.7728649,7.22958875 C24.0757117,7.53247627 24.0757117,8.02436562 23.7728649,8.32725315 L16.0975167,16.0012116 L23.7704422,23.6775931 C24.0732889,23.9804806 24.0732889,24.4699468 23.7704422,24.7728344 L23.7704422,24.7728344 Z" id="Shape"></path>
                </g>
            </g>
        </g>
    </g>
</svg>